HIERARCHY
ROOT hip
{
  OFFSET 0 0 0
  CHANNELS 6 Xposition Yposition Zposition Zrotation Yrotation Xrotation
  JOINT abdomen
  {
    OFFSET 0 20.6881 -0.73152
    CHANNELS 3 Zrotation Xrotation Yrotation
    JOINT chest
    {
      OFFSET 0 11.7043 -0.48768
      CHANNELS 3 Zrotation Xrotation Yrotation
      JOINT neck
      {
        OFFSET 0 22.1894 -2.19456
        CHANNELS 3 Zrotation Xrotation Yrotation
        JOINT head
        {
          OFFSET -0.24384 7.07133 1.2192
          CHANNELS 3 Zrotation Xrotation Yrotation
          JOINT leftEye
          {
            OFFSET 4.14528 8.04674 8.04672
            CHANNELS 3 Zrotation Xrotation Yrotation
            End Site
            {
              OFFSET 1 0 0
            }
          }
          JOINT rightEye
          {
            OFFSET -3.6576 8.04674 8.04672
            CHANNELS 3 Zrotation Xrotation Yrotation
            End Site
            {
              OFFSET 1 0 0
            }
          }
        }
      }
      JOINT rCollar
      {
        OFFSET -2.68224 19.2634 -4.8768
        CHANNELS 3 Zrotation Xrotation Yrotation
        JOINT rShldr
        {
          OFFSET -8.77824 -1.95073 1.46304
          CHANNELS 3 Zrotation Xrotation Yrotation
          JOINT rForeArm
          {
            OFFSET -28.1742 -1.7115 0.48768
            CHANNELS 3 Zrotation Xrotation Yrotation
            JOINT rHand
            {
              OFFSET -22.5879 0.773209 7.07136
              CHANNELS 3 Zrotation Xrotation Yrotation
              JOINT rThumb1
              {
                OFFSET -1.2192 -0.487915 3.41376
                CHANNELS 3 Zrotation Xrotation Yrotation
                JOINT rThumb2
                {
                  OFFSET -3.37035 -0.52449 3.41376
                  CHANNELS 3 Zrotation Xrotation Yrotation
                  End Site
                  {
                    OFFSET -1.78271 -1.18214 1.43049
                  }
                }
              }
              JOINT rIndex1
              {
                OFFSET -7.75947 0.938293 5.60832
                CHANNELS 3 Zrotation Xrotation Yrotation
                JOINT rIndex2
                {
                  OFFSET -2.54057 -0.884171 1.56538
                  CHANNELS 3 Zrotation Xrotation Yrotation
                  End Site
                  {
                    OFFSET -1.62519 -0.234802 1.16502
                  }
                }
              }
              JOINT rMid1
              {
                OFFSET -8.24714 1.18213 3.41376
                CHANNELS 3 Zrotation Xrotation Yrotation
                JOINT rMid2
                {
                  OFFSET -3.10165 -0.590103 1.0647
                  CHANNELS 3 Zrotation Xrotation Yrotation
                  End Site
                  {
                    OFFSET -2.48547 -0.328903 0.83742
                  }
                }
              }
              JOINT rRing1
              {
                OFFSET -8.82822 0.546677 1.51678
                CHANNELS 3 Zrotation Xrotation Yrotation
                JOINT rRing2
                {
                  OFFSET -2.60934 -0.819778 -0.0198488
                  CHANNELS 3 Zrotation Xrotation Yrotation
                  End Site
                  {
                    OFFSET -2.33842 -0.294052 0.168128
                  }
                }
              }
              JOINT rPinky1
              {
                OFFSET -8.27202 -0.0477905 -0.4584
                CHANNELS 3 Zrotation Xrotation Yrotation
                JOINT rPinky2
                {
                  OFFSET -1.82734 -0.647385 -0.700984
                  CHANNELS 3 Zrotation Xrotation Yrotation
                  End Site
                  {
                    OFFSET -1.69225 -0.51767 -0.607171
                  }
                }
              }
            }
          }
        }
      }
      JOINT lCollar
      {
        OFFSET 2.68224 19.2634 -4.8768
        CHANNELS 3 Zrotation Xrotation Yrotation
        JOINT lShldr
        {
          OFFSET 8.77824 -1.95073 1.46304
          CHANNELS 3 Zrotation Xrotation Yrotation
          JOINT lForeArm
          {
            OFFSET 28.1742 -1.7115 0.48768
            CHANNELS 3 Zrotation Xrotation Yrotation
            JOINT lHand
            {
              OFFSET 22.5879 0.773209 7.07136
              CHANNELS 3 Zrotation Xrotation Yrotation
              JOINT lThumb1
              {
                OFFSET 1.2192 -0.487915 3.41376
                CHANNELS 3 Zrotation Xrotation Yrotation
                JOINT lThumb2
                {
                  OFFSET 3.37035 -0.52449 3.41376
                  CHANNELS 3 Zrotation Xrotation Yrotation
                  End Site
                  {
                    OFFSET 1.78271 -1.18214 1.43049
                  }
                }
              }
              JOINT lIndex1
              {
                OFFSET 7.75947 0.938293 5.60832
                CHANNELS 3 Zrotation Xrotation Yrotation
                JOINT lIndex2
                {
                  OFFSET 2.54057 -0.884171 1.56538
                  CHANNELS 3 Zrotation Xrotation Yrotation
                  End Site
                  {
                    OFFSET 1.62519 -0.234802 1.16502
                  }
                }
              }
              JOINT lMid1
              {
                OFFSET 8.24714 1.18213 3.41376
                CHANNELS 3 Zrotation Xrotation Yrotation
                JOINT lMid2
                {
                  OFFSET 3.10165 -0.590103 1.0647
                  CHANNELS 3 Zrotation Xrotation Yrotation
                  End Site
                  {
                    OFFSET 2.48547 -0.328903 0.83742
                  }
                }
              }
              JOINT lRing1
              {
                OFFSET 8.82822 0.546677 1.51678
                CHANNELS 3 Zrotation Xrotation Yrotation
                JOINT lRing2
                {
                  OFFSET 2.60934 -0.819778 -0.0198488
                  CHANNELS 3 Zrotation Xrotation Yrotation
                  End Site
                  {
                    OFFSET 2.33842 -0.294052 0.168128
                  }
                }
              }
              JOINT lPinky1
              {
                OFFSET 8.27202 -0.0477905 -0.4584
                CHANNELS 3 Zrotation Xrotation Yrotation
                JOINT lPinky2
                {
                  OFFSET 1.82734 -0.647385 -0.700984
                  CHANNELS 3 Zrotation Xrotation Yrotation
                  End Site
                  {
                    OFFSET 1.69225 -0.51767 -0.607171
                  }
                }
              }
            }
          }
        }
      }
    }
  }
  JOINT rButtock
  {
    OFFSET -8.77824 4.35084 1.2192
    CHANNELS 3 Zrotation Xrotation Yrotation
    JOINT rThigh
    {
      OFFSET 0 -1.70687 -2.19456
      CHANNELS 3 Zrotation Xrotation Yrotation
      JOINT rShin
      {
        OFFSET 0 -36.8199 0.73152
        CHANNELS 3 Zrotation Xrotation Yrotation
        JOINT rFoot
        {
          OFFSET 0.73152 -45.1104 -5.12064
          CHANNELS 3 Zrotation Xrotation Yrotation
          End Site
          {
            OFFSET -1.1221 -3.69964 12.103
          }
        }
      }
    }
  }
  JOINT lButtock
  {
    OFFSET 8.77824 4.35084 1.2192
    CHANNELS 3 Zrotation Xrotation Yrotation
    JOINT lThigh
    {
      OFFSET 0 -1.70687 -2.19456
      CHANNELS 3 Zrotation Xrotation Yrotation
      JOINT lShin
      {
        OFFSET 0 -36.8199 0.73152
        CHANNELS 3 Zrotation Xrotation Yrotation
        JOINT lFoot
        {
          OFFSET -0.73152 -45.1104 -5.12064
          CHANNELS 3 Zrotation Xrotation Yrotation
          End Site
          {
            OFFSET 1.1221 -3.69964 12.103
          }
        }
      }
    }
  }
}
MOTION
Frames:	6
Frame Time:	0.00833333
10.0831 81.5667 18.0429 -139.854 -77.5263 147.872 10.4775 -6.06421 7.91496 -1.67666 -2.36239 1.84776 -4.94852 1.81078 -3.91496 9.71025 -9.98169 -5.86353 -0.0 0.0 0.0 -0.0 0.0 0.0 2.34353e-13 -2.6671e-12 -1.17031e-13 57.8282 15.897 24.8205 -22.3087 -16.2272 44.6349 -6.72234e-05 -0.242678 -0.0341063 8.96105e-11 -1.94756e-10 6.43535e-10 1.56297e-10 -3.36727e-10 1.11365e-09 8.9621e-11 -1.94754e-10 6.43527e-10 7.73091 5.47488 0.417314 8.96114e-11 -1.94756e-10 6.43533e-10 2.90554 0.965183 0.102902 8.96161e-11 -1.94753e-10 6.43534e-10 10.2786 0.731801 0.0259123 8.96092e-11 -1.94754e-10 6.43544e-10 2.22167 -0.733487 -0.20892 2.34238e-13 -2.66711e-12 -1.17205e-13 -70.4991 -25.5179 6.54207 22.2502 -16.1422 -44.4343 0.139182 -10.5383 1.49833 -2.89122e-10 -7.50304e-09 -1.45413e-09 -4.89656e-10 -1.2957e-08 -2.51319e-09 -2.89127e-10 -7.50304e-09 -1.45412e-09 -7.73091 5.47488 -0.417314 -2.89124e-10 -7.50305e-09 -1.45414e-09 -2.90554 0.965183 -0.102902 -2.89134e-10 -7.50304e-09 -1.45413e-09 -10.2786 0.731801 -0.0259123 -2.8912e-10 -7.50304e-09 -1.45414e-09 -2.22167 -0.733487 0.20892 -2.03217e-16 0.0 -3.88251e-19 9.54974 1.31251 5.97774 -0.151866 24.6758 0.313764 -1.58032 -8.20422 -5.19278 2.03217e-16 0.0 3.88251e-19 10.717 -36.3739 -0.611 0.103621 21.5584 0.167807 0.487851 3.52319 12.3826
9.05325 81.5794 18.1592 -141.191 -77.8433 149.043 9.8402 -6.06273 7.76962 -1.62645 -2.28848 1.82124 -4.99209 1.84836 -3.94099 9.89566 -10.0569 -5.88756 -0.0 0.0 0.0 -0.0 0.0 0.0 3.77605e-14 3.05563e-12 -8.47207e-14 58.5332 16.0836 24.2252 -22.1876 -16.0406 44.3038 -3.64903e-05 -0.176893 -0.0248607 3.0682e-09 2.13161e-09 -7.35894e-10 5.30838e-09 3.6894e-09 -1.27589e-09 3.06821e-09 2.13161e-09 -7.35903e-10 7.73091 5.47488 0.417314 3.0682e-09 2.13161e-09 -7.35895e-10 2.90554 0.965183 0.102902 3.0682e-09 2.13161e-09 -7.35896e-10 10.2786 0.731801 0.0259123 3.0682e-09 2.13161e-09 -7.35885e-10 2.22167 -0.733487 -0.20892 3.76129e-14 3.05562e-12 -8.48776e-14 -71.1319 -25.7879 6.36722 21.6756 -15.2756 -42.9136 0.131956 -10.2651 1.45861 -3.03838e-09 -2.93201e-09 1.01111e-10 -5.25724e-09 -5.1259e-09 1.54306e-10 -3.03838e-09 -2.93201e-09 1.01124e-10 -7.73091 5.47488 -0.417314 -3.03838e-09 -2.93202e-09 1.01108e-10 -2.90554 0.965183 -0.102902 -3.03839e-09 -2.93202e-09 1.01111e-10 -10.2786 0.731801 -0.0259123 -3.03838e-09 -2.93201e-09 1.01103e-10 -2.22167 -0.733487 0.20892 -2.03217e-16 0.0 -3.88251e-19 8.81646 0.882879 5.65664 -0.167235 26.4041 0.336378 -1.44529 -7.24122 -4.90713 2.03217e-16 0.0 3.88251e-19 9.87552 -36.048 -0.681054 0.10937 22.1061 0.172482 0.404767 3.8991 12.0501
8.01989 81.598 18.2593 -142.085 -78.1299 149.749 9.30534 -6.02013 7.59778 -1.59225 -2.2229 1.78472 -5.01668 1.88001 -3.95683 10.0388 -10.1369 -5.89794 -0.0 0.0 0.0 -0.0 0.0 0.0 -9.37395e-14 7.09551e-12 -7.44449e-14 59.2019 16.3301 23.6141 -22.046 -15.8266 43.9141 -1.53798e-05 -0.111999 -0.0157405 4.69469e-09 3.36447e-09 -1.47533e-09 8.12137e-09 5.82321e-09 -2.55701e-09 4.6947e-09 3.36448e-09 -1.47534e-09 7.73091 5.47488 0.417314 4.69469e-09 3.36448e-09 -1.47533e-09 2.90554 0.965183 0.102902 4.69469e-09 3.36448e-09 -1.47533e-09 10.2786 0.731801 0.0259123 4.69469e-09 3.36448e-09 -1.47532e-09 2.22167 -0.733487 -0.20892 -9.39193e-14 7.0955e-12 -7.45939e-14 -71.747 -25.8547 6.20548 21.0606 -14.4071 -41.3213 0.120336 -9.84358 1.39734 -4.29881e-09 2.69478e-10 1.07281e-09 -7.44507e-09 3.69355e-10 1.82303e-09 -4.29882e-09 2.69478e-10 1.07282e-09 -7.73091 5.47488 -0.417314 -4.29881e-09 2.69474e-10 1.07281e-09 -2.90554 0.965183 -0.102902 -4.29883e-09 2.69474e-10 1.07281e-09 -10.2786 0.731801 -0.0259123 -4.29881e-09 2.69475e-10 1.0728e-09 -2.22167 -0.733487 0.20892 -2.03217e-16 0.0 -3.88251e-19 8.14912 0.354376 5.26037 -0.186404 28.2315 0.360151 -1.30041 -5.9403 -4.67367 2.03217e-16 0.0 3.88251e-19 9.13545 -35.6739 -0.713219 0.114977 22.6587 0.174976 0.355496 4.13023 11.6813
6.98719 81.6178 18.3459 -142.573 -78.3891 150.034 8.94765 -5.92241 7.39671 -1.59531 -2.16558 1.73539 -5.01768 1.90388 -3.96237 10.1273 -10.2211 -5.89629 -0.0 0.0 0.0 -0.0 0.0 0.0 -1.38098e-13 9.1655e-12 -1.02539e-13 59.844 16.6378 22.9705 -21.8829 -15.5826 43.4729 -1.16824e-05 -0.0546713 -0.00768353 4.19549e-09 2.83668e-09 -1.19401e-09 7.25671e-09 4.91018e-09 -2.07035e-09 4.19551e-09 2.83669e-09 -1.19402e-09 7.73091 5.47488 0.417314 4.1955e-09 2.83669e-09 -1.19401e-09 2.90554 0.965183 0.102902 4.1955e-09 2.83669e-09 -1.19401e-09 10.2786 0.731801 0.0259123 4.19549e-09 2.83669e-09 -1.194e-09 2.22167 -0.733487 -0.20892 -1.38318e-13 9.16549e-12 -1.02694e-13 -72.3334 -25.7046 6.06594 20.3991 -13.5309 -39.6331 0.108063 -9.30843 1.31994 -3.04033e-09 1.79295e-09 1.30407e-09 -5.26926e-09 3.01184e-09 2.22698e-09 -3.04033e-09 1.79295e-09 1.30408e-09 -7.73091 5.47488 -0.417314 -3.04033e-09 1.79294e-09 1.30406e-09 -2.90554 0.965183 -0.102902 -3.04034e-09 1.79295e-09 1.30406e-09 -10.2786 0.731801 -0.0259123 -3.04033e-09 1.79295e-09 1.30405e-09 -2.22167 -0.733487 0.20892 -2.03217e-16 0.0 -3.88251e-19 7.59118 -0.280677 4.75089 -0.209802 30.1856 0.385531 -1.14198 -4.26302 -4.4892 2.03217e-16 0.0 3.88251e-19 8.56743 -35.2524 -0.682095 0.120951 23.2478 0.175243 0.340595 4.19943 11.2401
5.95685 81.6356 18.425 -142.818 -78.6309 150.064 8.70084 -5.78481 7.16629 -1.62183 -2.11238 1.67487 -5.00591 1.92135 -3.96141 10.1811 -10.311 -5.88603 -0.0 0.0 0.0 -0.0 0.0 0.0 -1.37792e-13 1.03995e-11 -1.56621e-13 60.48 17.0011 22.2866 -21.6972 -15.3077 42.9833 -2.02329e-05 -0.000315674 -4.42574e-05 2.43371e-09 1.25257e-09 -3.05067e-10 4.20751e-09 2.16921e-09 -5.31464e-10 2.43373e-09 1.25258e-09 -3.05077e-10 7.73091 5.47488 0.417314 2.43372e-09 1.25257e-09 -3.05065e-10 2.90554 0.965183 0.102902 2.43372e-09 1.25258e-09 -3.05072e-10 10.2786 0.731801 0.0259123 2.43371e-09 1.25257e-09 -3.05065e-10 2.22167 -0.733487 -0.20892 -1.38059e-13 1.03995e-11 -1.56788e-13 -72.8933 -25.3722 5.9342 19.6652 -12.6063 -37.8366 0.0954473 -8.64718 1.22482 -2.1606e-10 2.52123e-09 1.13683e-09 -3.8139e-10 4.30766e-09 1.95115e-09 -2.16067e-10 2.52122e-09 1.13684e-09 -7.73091 5.47488 -0.417314 -2.16065e-10 2.52122e-09 1.13683e-09 -2.90554 0.965183 -0.102902 -2.1607e-10 2.52122e-09 1.13682e-09 -10.2786 0.731801 -0.0259123 -2.16058e-10 2.52122e-09 1.13681e-09 -2.22167 -0.733487 0.20892 -2.03217e-16 0.0 -3.88251e-19 7.0807 -1.02132 4.13503 -0.237423 32.2669 0.412879 -0.971499 -2.26951 -4.3307 2.03217e-16 0.0 3.88251e-19 8.10583 -34.7872 -0.607543 0.127273 23.8513 0.173918 0.352724 4.1241 10.7186
4.92866 81.651 18.5069 -143.067 -78.8746 150.088 8.44847 -5.62708 6.91302 -1.63427 -2.06654 1.60827 -4.9837 1.93557 -3.95137 10.2129 -10.4069 -5.86092 -0.0 0.0 0.0 -0.0 0.0 0.0 -1.10574e-13 1.05929e-11 -2.09222e-13 61.0818 17.4238 21.6042 -21.4859 -15.0017 42.4296 -2.52611e-05 0.0626398 0.00880359 5.02588e-10 -4.14995e-10 6.44648e-10 8.65695e-10 -7.16201e-10 1.11272e-09 5.02598e-10 -4.14988e-10 6.44639e-10 7.73091 5.47488 0.417314 5.02589e-10 -4.1499e-10 6.44651e-10 2.90554 0.965183 0.102902 5.02596e-10 -4.14991e-10 6.44642e-10 10.2786 0.731801 0.0259123 5.02585e-10 -4.14992e-10 6.44647e-10 2.22167 -0.733487 -0.20892 -1.10875e-13 1.05929e-11 -2.09406e-13 -73.4433 -24.8626 5.80384 18.8766 -11.6661 -35.9922 0.0785034 -7.79106 1.10204 2.57111e-09 2.48627e-09 6.67674e-10 4.44352e-09 4.29036e-09 1.15528e-09 2.5711e-09 2.48627e-09 6.67678e-10 -7.73091 5.47488 -0.417314 2.5711e-09 2.48626e-09 6.67666e-10 -2.90554 0.965183 -0.102902 2.5711e-09 2.48627e-09 6.67665e-10 -10.2786 0.731801 -0.0259123 2.57111e-09 2.48627e-09 6.6765e-10 -2.22167 -0.733487 0.20892 -2.03217e-16 0.0 -3.88251e-19 6.54723 -1.85219 3.49369 -0.26954 34.4131 0.442107 -0.795046 -0.00165642 -4.22945 2.03217e-16 0.0 3.88251e-19 7.63738 -34.2738 -0.533961 0.133075 24.4144 0.170528 0.384872 3.92716 10.2034
